<!-- lucide network · Generated by scripts/icons/lucide-mobile.mjs from lucide-static 1.48.0 (ISC); do not edit by hand. -->
<svg xmlns="http://www.w3.org/2000/svg" width="24" height="24" viewBox="0 0 24 24"><path d="M17 16H21A1 1 0 0 1 22 17V21A1 1 0 0 1 21 22H17A1 1 0 0 1 16 21V17A1 1 0 0 1 17 16Z" fill="none" stroke="#000000" stroke-width="2" stroke-linecap="round" stroke-linejoin="round"/><path d="M3 16H7A1 1 0 0 1 8 17V21A1 1 0 0 1 7 22H3A1 1 0 0 1 2 21V17A1 1 0 0 1 3 16Z" fill="none" stroke="#000000" stroke-width="2" stroke-linecap="round" stroke-linejoin="round"/><path d="M10 2H14A1 1 0 0 1 15 3V7A1 1 0 0 1 14 8H10A1 1 0 0 1 9 7V3A1 1 0 0 1 10 2Z" fill="none" stroke="#000000" stroke-width="2" stroke-linecap="round" stroke-linejoin="round"/><path d="M5 16v-3a1 1 0 0 1 1-1h12a1 1 0 0 1 1 1v3" fill="none" stroke="#000000" stroke-width="2" stroke-linecap="round" stroke-linejoin="round"/><path d="M12 12V8" fill="none" stroke="#000000" stroke-width="2" stroke-linecap="round" stroke-linejoin="round"/></svg>
